<svg xmlns="http://www.w3.org/2000/svg" viewBox="0 0 200.23 178">
    <defs>
        <style>.cls-1{fill:#2b2e68;}.cls-2{fill:#00c0e5;}</style>
    </defs>
    <title>Ресурс 2</title>
    <g id="Слой_2">
        <g id="Слой_1-2">
            <path class="cls-1"
                  d="M64.16,172c-25,0-56.31-23.46-56.31-59.43S39.13,53.18,64.16,53.18s42.23,17.2,42.23,17.2l4.69-4.69C56.34,20.33-1.53,67.25,0,112.61-1.53,158,56.34,204.89,111.08,159.53l-4.69-4.69S89.18,172,64.16,172Z"/>
            <path class="cls-2"
                  d="M65,136.07H63.3a19.54,19.54,0,0,1-19.48-19.48V110.2A19.54,19.54,0,0,1,63.3,90.71H65A19.54,19.54,0,0,1,84.49,110.2v6.39A19.54,19.54,0,0,1,65,136.07Z"/>
            <path class="cls-1"
                  d="M118.9,97V82.89h-7.82v61h7.82V109.48s2.15-26.39,21.89-18.77V82.89S125.15,78.2,118.9,97Z"/>
            <path class="cls-1"
                  d="M200.23,109.48c0-15.64-9.39-26.59-25-26.59-14.07,0-28.15,9.39-28.15,29.72,0,21.9,10.95,32.85,28.15,32.85a34.68,34.68,0,0,0,20.34-6.26v-6.26s-6.26,6.26-20.34,6.26c-14.94,0-19.26-15.33-20.14-23.46h45.17Zm-45.08,0c1-7,5.55-20.33,20-20.33,17.21,0,17.21,17.2,17.21,20.33Z"/>
            <path class="cls-1"
                  d="M51.33,29,40.66.76H38.38L27.71,29h2.58l3.17-8.63v.25h12.2L48.75,29Zm-17-11,5.2-14.12L44.71,18Z"/>
            <path class="cls-1"
                  d="M70.38.76V3.81a11.77,11.77,0,0,0-6.1-1.52c-3.81,0-6.09,2.28-6.09,5.33,0,5.33,13,7.62,13,14.48S63.52,29.72,62,29.72a22.45,22.45,0,0,1-6.86-1.53V25.14a17.23,17.23,0,0,0,7.62,2.29c3.81,0,6.09-2.29,6.09-4.57C68.85,14.48,55.9,16,55.9,7.62,55.9,2.29,60.47,0,64.28,0A21.19,21.19,0,0,1,70.38.76Z"/>
            <path class="cls-1"
                  d="M87.9.76H78.76V29h2.29V17.53h6.09s7.62-.77,7.62-8.39S89.43.76,87.9.76Zm-.76,14.48H81.05V3.05H87.9a5.8,5.8,0,0,1,4.57,6.09C92.47,14.48,87.14,15.24,87.14,15.24Z"/>
            <circle class="cls-1" cx="98.95" cy="27.05" r="1.9"/>
            <polygon class="cls-1"
                     points="127.53 0.76 127.53 25.7 110 0.76 107.71 0.76 107.71 28.95 110 28.95 110 4.01 127.53 28.95 129.81 28.95 129.81 0.76 127.53 0.76"/>
            <polygon class="cls-1"
                     points="174.77 0.76 166.38 0.76 164.1 0.76 155.72 0.76 155.72 3.05 164.1 3.05 164.1 28.95 166.38 28.95 166.38 3.05 174.77 3.05 174.77 0.76"/>
            <polygon class="cls-1"
                     points="152.67 3.05 152.67 0.76 140.48 0.76 138.96 0.76 138.19 0.76 138.19 28.95 138.96 28.95 140.48 28.95 152.67 28.95 152.67 26.67 140.48 26.67 140.48 16 151.15 16 151.15 13.71 140.48 13.71 140.48 3.05 152.67 3.05"/>
        </g>
    </g>
</svg>